<svg xmlns="http://www.w3.org/2000/svg" width="32" height="30" fill="none"><path fill="#FF003C" d="M7.21 2.175a2.175 2.175 0 0 1 4.351 0v11.452a2.175 2.175 0 0 1-4.35 0V2.175ZM18.08 12.683a4.351 4.351 0 0 1 .087-7.565l4.83-2.786c.315-.174.673-.27 1.057-.27a2.175 2.175 0 0 1 1.083 4.061l-3.834 2.21a.676.676 0 0 0-.35.594c0 .254.131.472.332.585l3.835 2.22a2.185 2.185 0 0 1 1.1 1.895 2.175 2.175 0 0 1-2.174 2.175c-.402 0-.77-.105-1.092-.289l-4.875-2.83ZM31.603 20.108c-3.407 5.284-9.154 8.761-15.68 8.761-6.49 0-12.22-3.442-15.627-8.683a1.836 1.836 0 0 1 .542-2.541 1.845 1.845 0 0 1 2.49.463c2.838 3.887 7.424 6.411 12.604 6.411 5.18 0 9.775-2.533 12.614-6.42a1.848 1.848 0 0 1 2.41-.498 1.848 1.848 0 0 1 .647 2.507Z"/></svg>