<svg xmlns="http://www.w3.org/2000/svg" width="36" height="12" fill="none"><path fill="#323232" d="m33.333 11.827-.337-1.74h-3.772l-.6 1.727-3.022.007c1.439-3.568 2.88-7.134 4.326-10.698.246-.605.682-.913 1.326-.91.492.005 1.294.005 2.409.002L36 11.822l-2.667.005Zm-3.26-4.123h2.43l-.907-4.36-1.523 4.36ZM10.59.212l3.039.003-4.698 11.613-3.076-.003c-.774-3.067-1.538-6.137-2.293-9.21-.15-.612-.446-1.04-1.018-1.243A93.3 93.3 0 0 0 0 .534V.216h4.856c.84 0 1.33.42 1.487 1.28.16.86.559 3.053 1.2 6.578L10.59.212Zm7.215.003-2.403 11.61-2.892-.003 2.4-11.61 2.895.003ZM23.67 0c.865 0 1.956.278 2.583.534l-.507 2.407c-.567-.235-1.5-.552-2.284-.541-1.14.02-1.846.513-1.846.987 0 .77 1.224 1.158 2.485 2 1.438.958 1.627 1.82 1.609 2.755C25.69 10.084 24.1 12 20.747 12c-1.53-.023-2.082-.156-3.33-.612l.527-2.513c1.271.549 1.81.723 2.896.723.994 0 1.848-.414 1.855-1.136.006-.514-.3-.769-1.416-1.403-1.116-.635-2.682-1.515-2.661-3.281C18.644 1.517 20.721 0 23.672 0h-.002Z"/></svg>