<svg xmlns="http://www.w3.org/2000/svg" width="25" height="24" fill="none"><path fill="#323232" d="M12.252 7c1.348 0 2.179.97 2.245 2.329l.005.18v2.115l2.219.403a3.25 3.25 0 0 1 2.602 3.857l-.043.18-1.048 3.923a2.25 2.25 0 0 1-1.689 1.616l-.165.03-2.418.347a2.25 2.25 0 0 1-2.28-1.123l-.08-.155-.03-.063a3.464 3.464 0 0 0-1.026-1.283l-.193-.138-1.884-1.256-.094-.059-.097-.052-2.363-1.175a.75.75 0 0 1-.416-.655c-.024-1.109.466-1.964 1.42-2.44.701-.352 1.634-.332 2.826.016l.259.08V9.507c0-1.453.842-2.508 2.25-2.508Zm0 1.5c-.46 0-.713.275-.746.866l-.004.142v5.245a.75.75 0 0 1-1.036.693c-1.46-.602-2.442-.743-2.879-.524-.254.127-.42.29-.51.519l-.038.12 1.905.947.181.097.174.109 1.884 1.256a4.966 4.966 0 0 1 1.626 1.792l.122.245.029.062a.75.75 0 0 0 .678.434l.109-.008 2.418-.347a.75.75 0 0 0 .581-.443l.037-.105 1.048-3.924a1.75 1.75 0 0 0-1.239-2.142l-.07-.017-2.904-.529a.75.75 0 0 1-.609-.63l-.007-.108V9.508c0-.69-.255-1.008-.75-1.008ZM12.25 2a7.25 7.25 0 0 1 6.697 10.034 4.205 4.205 0 0 0-1.305-.785 5.75 5.75 0 1 0-10.219 1.13 3.316 3.316 0 0 0-.955.307c-.16.08-.313.17-.455.266A7.25 7.25 0 0 1 12.25 2Zm0 2.502A4.749 4.749 0 0 1 16.666 11l-1.164-.212V9.51l-.004-.195.002-.063c0-.681-.21-1.313-.568-1.835l-.089-.132C14.285 6.496 13.393 6 12.252 6c-1.175 0-2.085.526-2.64 1.353a3.237 3.237 0 0 0-.61 1.898l.002.11-.002.147v2.89l-.262-.036a1 1 0 0 1-.617-.32c-.414-.458-.621-1.388-.621-2.791A4.749 4.749 0 0 1 12.25 4.5Z"/></svg>