<svg width="24" height="24" viewBox="0 0 24 24" fill="none" xmlns="http://www.w3.org/2000/svg">
<circle cx="11" cy="12" r="3" stroke="#FF003C" stroke-width="1.5"/>
<path d="M18.0027 6.34647C16.9221 5.00798 15.4805 4.00722 13.8487 3.46272C12.2169 2.91823 10.4632 2.85281 8.79532 3.27421C7.12747 3.69562 5.61533 4.58619 4.43799 5.84045C3.26065 7.09472 2.46744 8.66012 2.15231 10.3513C1.83717 12.0424 2.0133 13.7885 2.65986 15.3826C3.30641 16.9767 4.39629 18.3522 5.80041 19.346C7.20454 20.3399 8.86408 20.9105 10.5825 20.9903C12.3009 21.0701 14.0062 20.6558 15.4964 19.7963" stroke="#777777" stroke-width="1.5" stroke-linecap="round"/>
<mask id="path-3-inside-1_6615_122771" fill="white">
<path d="M16 9C16 8.44772 16.4477 8 17 8H22C22.5523 8 23 8.44772 23 9V12.5C23 14.433 21.433 16 19.5 16C17.567 16 16 14.433 16 12.5V9Z"/>
</mask>
<path d="M16 9C16 8.44772 16.4477 8 17 8H22C22.5523 8 23 8.44772 23 9V12.5C23 14.433 21.433 16 19.5 16C17.567 16 16 14.433 16 12.5V9Z" stroke="#777777" stroke-width="3" stroke-linejoin="round" mask="url(#path-3-inside-1_6615_122771)"/>
<rect x="17.0044" y="18.5" width="4.99121" height="1.5" rx="0.75" fill="#777777"/>
<rect x="18.75" y="20" width="5" height="1.5" rx="0.75" transform="rotate(-90 18.75 20)" fill="#777777"/>
</svg>
