<svg width="24" height="24" viewBox="0 0 24 24" fill="none" xmlns="http://www.w3.org/2000/svg">
<path d="M10.1988 7.75098C10.1988 4.57534 12.7732 2.00098 15.9488 2.00098C16.8947 2.00098 17.7893 2.22996 18.5782 2.63617C18.7911 2.74583 18.9389 2.95058 18.9758 3.18723C19.0128 3.42387 18.9345 3.66393 18.7651 3.83329L15.9994 6.59906L17.06 7.65972L19.8386 4.88117C20.0068 4.71295 20.2449 4.63451 20.4801 4.6698C20.7154 4.70508 20.92 4.84991 21.0315 5.06008C21.4577 5.86374 21.6988 6.78031 21.6988 7.75098C21.6988 10.9266 19.1245 13.501 15.9488 13.501C15.4883 13.501 15.0396 13.4467 14.6091 13.3439L7.24425 20.9628C6.12245 22.1232 4.29085 22.2091 3.06538 21.1587C1.73166 20.0155 1.63644 17.9851 2.85732 16.7221L10.3326 8.989C10.2449 8.58971 10.1988 8.17537 10.1988 7.75098ZM15.9488 3.50098C13.6016 3.50098 11.6988 5.40377 11.6988 7.75098C11.6988 8.18294 11.763 8.59854 11.8819 8.98949C11.9612 9.25007 11.8929 9.53312 11.7036 9.72894L3.93581 17.7646C3.31521 18.4066 3.36361 19.4387 4.04156 20.0198C4.6645 20.5538 5.59553 20.5101 6.16577 19.9202L13.8422 11.9791C14.0422 11.7722 14.343 11.698 14.6164 11.7881C15.0345 11.926 15.4822 12.001 15.9488 12.001C18.2961 12.001 20.1988 10.0982 20.1988 7.75098C20.1988 7.40883 20.1586 7.0766 20.0825 6.75854L17.5903 9.25071C17.2975 9.5436 16.8226 9.5436 16.5297 9.25071L14.4084 7.12939C14.1155 6.8365 14.1155 6.36162 14.4084 6.06873L16.8751 3.60203C16.5772 3.53589 16.2673 3.50098 15.9488 3.50098Z" fill="#777777"/>
<path fill-rule="evenodd" clip-rule="evenodd" d="M15.0105 17.4223C15.1698 16.952 15.4322 16.5203 15.7785 16.1544C15.837 16.0926 15.9289 16.0705 16.0111 16.0986L16.8386 16.381C17.063 16.4575 17.3098 16.346 17.39 16.1318C17.3979 16.1108 17.404 16.0891 17.4082 16.0672L17.5658 15.2412C17.5815 15.1591 17.6476 15.0941 17.7331 15.0767C17.9834 15.0259 18.24 15 18.5 15C18.7598 15 19.0163 15.0258 19.2664 15.0766C19.3519 15.094 19.418 15.1589 19.4337 15.241L19.5918 16.0671C19.6345 16.2909 19.8592 16.4392 20.0936 16.3984C20.1166 16.3943 20.1393 16.3885 20.1613 16.381L20.9888 16.0986C21.0711 16.0705 21.1629 16.0926 21.2215 16.1544C21.5678 16.5203 21.8302 16.952 21.9895 17.4223C22.0164 17.5016 21.9905 17.5886 21.9239 17.6425L21.2531 18.1861C21.0715 18.3333 21.0493 18.5932 21.2035 18.7665C21.2187 18.7835 21.2353 18.7994 21.2531 18.8139L21.9239 19.3574C21.9905 19.4114 22.0164 19.4984 21.9895 19.5777C21.8302 20.048 21.5678 20.4797 21.2215 20.8455C21.1629 20.9074 21.0711 20.9295 20.9888 20.9014L20.1613 20.619C19.937 20.5424 19.6901 20.654 19.61 20.8681C19.6021 20.8892 19.596 20.9108 19.5918 20.9329L19.4337 21.759C19.418 21.8411 19.3519 21.906 19.2664 21.9234C19.0163 21.9741 18.7598 22 18.5 22C18.24 22 17.9834 21.9741 17.7331 21.9233C17.6476 21.9059 17.5815 21.8409 17.5658 21.7588L17.4082 20.9328C17.3654 20.7091 17.1408 20.5608 16.9064 20.6016C16.8834 20.6056 16.8607 20.6114 16.8387 20.6189L16.0111 20.9014C15.9289 20.9295 15.837 20.9074 15.7785 20.8455C15.4322 20.4797 15.1698 20.048 15.0105 19.5777C14.9836 19.4984 15.0095 19.4114 15.0761 19.3574L15.7468 18.8139C15.9284 18.6667 15.9506 18.4068 15.7964 18.2335C15.7813 18.2164 15.7647 18.2006 15.7468 18.1861L15.0761 17.6425C15.0095 17.5886 14.9836 17.5016 15.0105 17.4223ZM18.4999 19.75C19.1903 19.75 19.7499 19.1904 19.7499 18.5C19.7499 17.8096 19.1903 17.25 18.4999 17.25C17.8096 17.25 17.2499 17.8096 17.2499 18.5C17.2499 19.1904 17.8096 19.75 18.4999 19.75Z" fill="#FF003C"/>
</svg>
