<svg width="24" height="24" viewBox="0 0 24 24" fill="none" xmlns="http://www.w3.org/2000/svg">
<path fill-rule="evenodd" clip-rule="evenodd" d="M13.9998 12.5C14.8282 12.5 15.4998 13.1716 15.4998 14V20.5H19.4998V10.1344C19.4998 9.84606 19.3753 9.57173 19.1583 9.38184L12.7646 3.78737C12.5529 3.60211 12.2811 3.5 11.9998 3.5C11.7185 3.5 11.4467 3.60211 11.235 3.78737L4.84131 9.38184C4.6243 9.57173 4.49982 9.84606 4.49982 10.1344V20.5H8.49982V14C8.49982 13.1716 9.17139 12.5 9.99982 12.5H13.9998ZM2.75228 11.2082L2.99982 10.9916V20.5C2.99982 21.3284 3.67139 22 4.49982 22H8.49982C9.32824 22 9.99982 21.3284 9.99982 20.5V15.5V14H11.4998H12.4998H13.9998V15.5V20.5C13.9998 21.3284 14.6714 22 15.4998 22H19.4998C20.3282 22 20.9998 21.3284 20.9998 20.5V10.992L21.2467 11.2081C21.5583 11.4809 22.0322 11.4494 22.305 11.1377C22.5778 10.826 22.5463 10.3522 22.2346 10.0794L15.8536 4.49424C15.8391 4.48152 15.8242 4.46947 15.809 4.45807L13.7524 2.6585C13.2672 2.23399 12.6445 2 11.9998 2C11.3552 2 10.7324 2.23399 10.2472 2.6585L9.33964 3.45265C9.32236 3.46535 9.30548 3.47888 9.28905 3.49326L1.76434 10.0795C1.45266 10.3523 1.42115 10.8262 1.69396 11.1378C1.96677 11.4495 2.4406 11.481 2.75228 11.2082Z" fill="#777777"/>
<path d="M17.4902 3.5L20.5001 6.1345" stroke="#FF003C" stroke-width="1.5" stroke-linecap="round"/>
</svg>
