<svg width="24" height="24" viewBox="0 0 24 24" fill="none" xmlns="http://www.w3.org/2000/svg">
<path d="M9.55575 22H4.44425C3.64644 22 3 21.3969 3 20.6526V13H11V20.6526C11 21.3969 10.3536 22 9.55575 22Z" stroke="#777777" stroke-width="1.5" stroke-miterlimit="10" stroke-linecap="round" stroke-linejoin="round"/>
<path d="M9.5 8H4.5V13H9.5V8Z" stroke="#777777" stroke-width="1.5" stroke-miterlimit="10" stroke-linecap="round" stroke-linejoin="round"/>
<path d="M5.40822 7.76926C5.40822 7.76926 4.71615 3.67135 6.53284 2C6.53284 2 8.82618 2.1462 8.71718 7.76926" stroke="#777777" stroke-width="1.5" stroke-miterlimit="10" stroke-linecap="round" stroke-linejoin="round"/>
<path d="M19.9186 22H16.0814L15.5 10H20.5L19.9186 22Z" stroke="#777777" stroke-width="1.5" stroke-miterlimit="10" stroke-linecap="round" stroke-linejoin="round"/>
<path d="M15.6224 10C15.6224 10 10.7015 1.6708 18 2.01009C25.2985 2.34938 20.3776 10 20.3776 10" stroke="#777777" stroke-width="1.5" stroke-miterlimit="10" stroke-linecap="round" stroke-linejoin="round"/>
<path d="M6 16L6 19" stroke="#FF003C" stroke-width="1.5" stroke-miterlimit="10" stroke-linecap="round" stroke-linejoin="round"/>
</svg>
