<svg width="24" height="24" viewBox="0 0 24 24" fill="none" xmlns="http://www.w3.org/2000/svg">
<mask id="path-1-inside-1_6638_71526" fill="white">
<path d="M21 11C21 12.78 20.4722 14.5201 19.4832 16.0001C18.4943 17.4802 17.0887 18.6337 15.4442 19.3149C13.7996 19.9961 11.99 20.1743 10.2442 19.8271C8.49836 19.4798 6.89471 18.6226 5.63604 17.364C4.37737 16.1053 3.5202 14.5016 3.17293 12.7558C2.82567 11.01 3.0039 9.20038 3.68508 7.55585C4.36627 5.91131 5.51983 4.50571 6.99987 3.51677C8.47991 2.52784 10.22 2 12 2L12 11H21Z"/>
</mask>
<path d="M21 11C21 12.78 20.4722 14.5201 19.4832 16.0001C18.4943 17.4802 17.0887 18.6337 15.4442 19.3149C13.7996 19.9961 11.99 20.1743 10.2442 19.8271C8.49836 19.4798 6.89471 18.6226 5.63604 17.364C4.37737 16.1053 3.5202 14.5016 3.17293 12.7558C2.82567 11.01 3.0039 9.20038 3.68508 7.55585C4.36627 5.91131 5.51983 4.50571 6.99987 3.51677C8.47991 2.52784 10.22 2 12 2L12 11H21Z" stroke="#777777" stroke-width="3" mask="url(#path-1-inside-1_6638_71526)"/>
<mask id="path-2-inside-2_6638_71526" fill="white">
<path d="M21 11C21 12.1819 20.7672 13.3522 20.3149 14.4442C19.8626 15.5361 19.1997 16.5282 18.364 17.364C17.5282 18.1997 16.5361 18.8626 15.4442 19.3149C14.3522 19.7672 13.1819 20 12 20C10.8181 20 9.64778 19.7672 8.55585 19.3149C7.46392 18.8626 6.47177 18.1997 5.63604 17.364C4.80031 16.5282 4.13738 15.5361 3.68508 14.4442C3.23279 13.3522 3 12.1819 3 11L12 11H21Z"/>
</mask>
<path d="M21 11C21 12.1819 20.7672 13.3522 20.3149 14.4442C19.8626 15.5361 19.1997 16.5282 18.364 17.364C17.5282 18.1997 16.5361 18.8626 15.4442 19.3149C14.3522 19.7672 13.1819 20 12 20C10.8181 20 9.64778 19.7672 8.55585 19.3149C7.46392 18.8626 6.47177 18.1997 5.63604 17.364C4.80031 16.5282 4.13738 15.5361 3.68508 14.4442C3.23279 13.3522 3 12.1819 3 11L12 11H21Z" stroke="#777777" stroke-width="3" mask="url(#path-2-inside-2_6638_71526)"/>
<path d="M5.5 22C6.32843 22 7 21.3284 7 20.5C7 19.6716 6.32843 19 5.5 19C4.67157 19 4 19.6716 4 20.5C4 21.3284 4.67157 22 5.5 22Z" fill="#FF003C"/>
<path d="M18.5 22C19.3284 22 20 21.3284 20 20.5C20 19.6716 19.3284 19 18.5 19C17.6716 19 17 19.6716 17 20.5C17 21.3284 17.6716 22 18.5 22Z" fill="#FF003C"/>
<path d="M16 9L20 7" stroke="#FF003C" stroke-width="1.5" stroke-linecap="round"/>
</svg>
