<svg width="24" height="24" viewBox="0 0 24 24" fill="none" xmlns="http://www.w3.org/2000/svg">
<path d="M2.46413 7.376L4.16013 6.832C4.54413 6.72 4.81613 6.656 5.12013 6.656H5.15213C5.71213 6.656 6.12813 7.072 6.12813 7.632V17.104C6.12813 17.664 5.71213 18.08 5.15213 18.08C4.62413 18.08 4.17613 17.664 4.17613 17.104V8.656L3.02413 9.008C2.91213 9.04 2.80013 9.056 2.67213 9.056C2.20813 9.056 1.80813 8.672 1.80813 8.224C1.80813 7.792 2.06413 7.488 2.46413 7.376Z" fill="#777777"/>
<path d="M17.4641 7.376L19.1601 6.832C19.5441 6.72 19.8161 6.656 20.1201 6.656H20.1521C20.7121 6.656 21.1281 7.072 21.1281 7.632V17.104C21.1281 17.664 20.7121 18.08 20.1521 18.08C19.6241 18.08 19.1761 17.664 19.1761 17.104V8.656L18.0241 9.008C17.9121 9.04 17.8001 9.056 17.6721 9.056C17.2081 9.056 16.8081 8.672 16.8081 8.224C16.8081 7.792 17.0641 7.488 17.4641 7.376Z" fill="#777777"/>
<path d="M12 8L11.8982 8.00685C11.5322 8.05651 11.25 8.3703 11.25 8.75V11.249L8.75 11.25L8.64823 11.2568C8.28215 11.3065 8 11.6203 8 12L8.00685 12.1018C8.05651 12.4678 8.3703 12.75 8.75 12.75L11.25 12.749V15.25L11.2568 15.3518C11.3065 15.7178 11.6203 16 12 16L12.1018 15.9932C12.4678 15.9435 12.75 15.6297 12.75 15.25V12.749L15.25 12.75L15.3518 12.7432C15.7178 12.6935 16 12.3797 16 12L15.9932 11.8982C15.9435 11.5322 15.6297 11.25 15.25 11.25L12.75 11.249V8.75L12.7432 8.64823C12.6935 8.28215 12.3797 8 12 8Z" fill="#FF003C"/>
</svg>
