<svg width="24" height="24" viewBox="0 0 24 24" fill="none" xmlns="http://www.w3.org/2000/svg">
<path d="M11.9995 10.5527C11.9995 11.3963 11.9995 13.4422 11.9995 14.2858Z" fill="#FF003C"/>
<path d="M11.9995 10.5527C11.9995 11.3963 11.9995 13.4422 11.9995 14.2858" stroke="#FF003C" stroke-width="1.2" stroke-miterlimit="10" stroke-linecap="round" stroke-linejoin="round"/>
<path d="M13.8658 12.4189C13.0223 12.4189 10.9763 12.4189 10.1328 12.4189Z" fill="#FF003C"/>
<path d="M13.8658 12.4189C13.0223 12.4189 10.9763 12.4189 10.1328 12.4189" stroke="#FF003C" stroke-width="1.2" stroke-miterlimit="10" stroke-linecap="round" stroke-linejoin="round"/>
<path d="M15.1725 18.2751V17.6397C15.1725 16.8394 15.4678 16.0636 16.0118 15.4771C16.9175 14.5009 17.4705 13.1937 17.4705 11.7566C17.4698 8.80495 15.0859 6.36096 12.1349 6.28973C9.05269 6.21502 6.52979 8.69253 6.52979 11.7587C6.52979 13.1951 7.08353 14.5016 7.9892 15.4778C8.53805 16.0692 8.82784 16.8555 8.82784 17.662V18.2751" stroke="#777777" stroke-width="1.2" stroke-miterlimit="10" stroke-linecap="round" stroke-linejoin="round"/>
<path d="M9.11133 20.0605L14.7674 20.1136" stroke="#777777" stroke-width="1.2" stroke-miterlimit="10" stroke-linecap="round" stroke-linejoin="round"/>
<path d="M10.3677 22H13.51" stroke="#777777" stroke-width="1.2" stroke-miterlimit="10" stroke-linecap="round" stroke-linejoin="round"/>
<path d="M11.9995 2V4.06483" stroke="#777777" stroke-width="1.2" stroke-miterlimit="10" stroke-linecap="round" stroke-linejoin="round"/>
<path d="M4.91053 11.1543H2.8457" stroke="#777777" stroke-width="1.2" stroke-miterlimit="10" stroke-linecap="round" stroke-linejoin="round"/>
<path d="M21.1539 11.1543H19.0884" stroke="#777777" stroke-width="1.2" stroke-miterlimit="10" stroke-linecap="round" stroke-linejoin="round"/>
<path d="M18.4715 4.68262L17.0122 6.14192" stroke="#777777" stroke-width="1.2" stroke-miterlimit="10" stroke-linecap="round" stroke-linejoin="round"/>
<path d="M6.98665 6.14192L5.52734 4.68262" stroke="#777777" stroke-width="1.2" stroke-miterlimit="10" stroke-linecap="round" stroke-linejoin="round"/>
</svg>
