<svg width="24" height="24" viewBox="0 0 24 24" fill="none" xmlns="http://www.w3.org/2000/svg">
<path d="M13.7709 15.4035L13.7709 15.4035C13.9241 15.5553 14.1261 15.6399 14.3403 15.6424L14.3419 15.6432L14.3538 15.6431L15.6065 15.6391C15.8252 15.6383 16.0318 15.5521 16.1867 15.3957C16.3415 15.2395 16.4263 15.0329 16.4256 14.8136V14.8136L16.4188 12.8501C16.4188 12.8501 16.4188 12.8501 16.4188 12.8501C16.4181 12.6313 16.331 12.4248 16.1755 12.2701L16.1755 12.27C16.0199 12.1159 15.8141 12.0311 15.5962 12.0311H15.5962H15.5962H15.5962H15.5962H15.5962H15.5961H15.5961H15.5961H15.5961H15.5961H15.5961H15.5961H15.5961H15.5961H15.5961H15.5961H15.5961H15.5961H15.5961H15.5961H15.5961H15.5961H15.5961H15.5961H15.5961H15.5961H15.5961H15.5961H15.5961H15.596H15.596H15.596H15.596H15.596H15.596H15.596H15.596H15.596H15.596H15.596H15.596H15.596H15.596H15.596H15.596H15.596H15.596H15.596H15.596H15.596H15.596H15.5959H15.5959H15.5959H15.5959H15.5959H15.5959H15.5959H15.5959H15.5959H15.5959H15.5959H15.5959H15.5959H15.5959H15.5959H15.5959H15.5959H15.5959H15.5959H15.5959H15.5958H15.5958H15.5958H15.5958H15.5958H15.5958H15.5958H15.5958H15.5958H15.5958H15.5958H15.5958H15.5958H15.5958H15.5958H15.5958H15.5958H15.5958H15.5958H15.5958H15.5957H15.5957H15.5957H15.5957H15.5957H15.5957H15.5957H15.5957H15.5957H15.5957H15.5957H15.5957H15.5957H15.5957H15.5957H15.5957H15.5957H15.5957H15.5957H15.5956H15.5956H15.5956H15.5956H15.5956H15.5956H15.5956H15.5956H15.5956H15.5956H15.5956H15.5956H15.5956H15.5956H15.5956H15.5956H15.5956H15.5956H15.5956H15.5955H15.5955H15.5955H15.5955H15.5955H15.5955H15.5955H15.5955H15.5955H15.5955H15.5955H15.5955H15.5955H15.5955H15.5955H15.5955H15.5955H15.5955H15.5954H15.5954H15.5954H15.5954H15.5954H15.5954H15.5954H15.5954H15.5954H15.5954H15.5954H15.5954H15.5954H15.5954H15.5954H15.5954H15.5954H15.5953H15.5953H15.5953H15.5953H15.5953H15.5953H15.5953H15.5953H15.5953H15.5953H15.5953H15.5953H15.5953H15.5953H15.5953H15.5953H15.5953H15.5953H15.5952H15.5952H15.5952H15.5952H15.5952H15.5952H15.5952H15.5952H15.5952H15.5952H15.5952H15.5952H15.5952H15.5952H15.5952H15.5952H15.5952H15.5951H15.5951H15.5951H15.5951H15.5951H15.5951H15.5951H15.5951H15.5951H15.5951H15.5951H15.5951H15.5951H15.5951H15.5951H15.5951H15.5951H15.595H15.595H15.595H15.595H15.595H15.595H15.595H15.595H15.595H15.595H15.595H15.595H15.595H15.595H15.595H15.595H15.595H15.5949H15.5949H15.5949H15.5949H15.5949H15.5949H15.5949H15.5949H15.5949H15.5949H15.5949H15.5949H15.5949H15.5949H15.5949H15.5949H15.5948H15.5948H15.5948H15.5948H15.5948H15.5948H15.5948H15.5948H15.5948H15.5948H15.5948H15.5948H15.5948H15.5948H15.5948H15.5948H15.5948H15.5947H15.5947H15.5947H15.5947H15.5947H15.5947H15.5947H15.5947H15.5947H15.5947H15.5947H15.5947H15.5947H15.5947H15.5947H15.5947H15.5947H15.5946H15.5946H15.5946H15.5946H15.5946H15.5946H15.5946H15.5946H15.5946H15.5946H15.5946H15.5946H15.5946H15.5946H15.5946H15.5946H15.5946H15.5945H15.5945H15.5945H15.5945H15.5945H15.5945H15.5945H15.5945H15.5945H15.5945H15.5945H15.5945H15.5945H15.5945H15.5945H15.5945H15.5945H15.5944H15.5944H15.5944H15.5944H15.5944H15.5944H15.5944H15.5944H15.5944H15.5944H15.5944H15.5944H15.5944H15.5944H15.5944H15.5944H15.5944H15.5943H15.5943H15.5943H15.5943H15.5943H15.5943H15.5943H15.5943H15.5943H15.5943H15.5943H15.5943H15.5943H15.5943H15.5943H15.5943H15.5943H15.5942H15.5942H15.5942H15.5942H15.5942H15.5942H15.5942H15.5942H15.5942H15.5942H15.5942H15.5942H15.5942H15.5942H15.5942H15.5942H15.5942H15.5942H15.5941H15.5941H15.5941H15.5941H15.5941H15.5941H15.5941H15.5941H15.5941H15.5941H15.5941H15.5941H15.5941H15.5941H15.5941H15.5941H15.5941H15.5941H15.594H15.594H15.594H15.594H15.594H15.594H15.594H15.594H15.594H15.594H15.594H15.594H15.594H15.594H15.594H15.594H15.594H15.594H15.594H15.5939H15.5939H15.5939H15.5939H15.5939H15.5939H15.5939H15.5939H15.5939H15.5939H15.5939H15.5939H15.5939H15.5939H15.5939H15.5939H15.5939H15.5939H15.5939H15.5938H15.5938H15.5938H15.5938H15.5938H15.5938H15.5938H15.5938H15.5938H15.5938H15.5938H15.5938H15.5938H15.5938H15.5938H15.5938H15.5938H15.5938H15.5938H15.5938H15.5937H15.5937H15.5937H15.5937H15.5937H15.5937H15.5937H15.5937H15.5937H15.5937H15.5937H15.5937H15.5937H15.5937H15.5937H15.5937H15.5937H15.5937H15.5937H15.5937H15.5937H15.5936H15.5936H15.5936H15.5936H15.5936H15.5936H15.5936H15.5936H15.5936H15.5936H15.5936H15.5936H15.5936H15.5936H15.5936H15.5936H15.5936H15.5936H15.5936H15.5936H15.5936H15.5936H15.5935H15.5935H15.5935H15.5935H15.5935H15.5935H15.5935H15.5935H15.5935H15.5935H15.5935H15.5935H15.5935H15.5935H15.5935H15.5935H15.5935H15.5935H15.5935H15.5935H15.5935H15.5935H15.5935L15.5935 12.0311L15.5933 12.0311L14.3405 12.0351C14.3405 12.0351 14.3405 12.0351 14.3405 12.0351C13.8865 12.0366 13.5194 12.4066 13.5208 12.8599L13.5208 12.86L13.5276 14.8234C13.5276 14.8234 13.5276 14.8234 13.5276 14.8234C13.5283 15.0422 13.6153 15.2487 13.7709 15.4035ZM14.3502 15.5925C14.1455 15.5925 13.9523 15.5129 13.8061 15.368L16.3756 14.8137C16.3763 15.0198 16.2967 15.2136 16.1511 15.3605C16.0056 15.5074 15.8118 15.5884 15.6064 15.5891L14.3536 15.5931C14.3523 15.5925 14.3516 15.5925 14.3502 15.5925ZM14.4272 14.7432L14.4208 12.9334L15.5205 12.9297L15.5263 14.7394L14.4272 14.7432Z" fill="#777777" stroke="#777777" stroke-width="0.1"/>
<path d="M10.7911 16.4899L10.791 16.4899C10.1351 16.1647 9.71566 15.5066 9.69821 14.7733L9.69821 14.7733L9.7482 14.772L9.69821 14.7732L9.68121 14.0891L9.68118 14.0879H9.68119V14.0878V14.0878V14.0878V14.0878V14.0878V14.0878V14.0878V14.0878V14.0878V14.0877V14.0877V14.0877V14.0877V14.0877V14.0877V14.0877V14.0877V14.0876V14.0876V14.0876V14.0876V14.0876V14.0876V14.0876V14.0876V14.0876V14.0875V14.0875V14.0875V14.0875V14.0875V14.0875V14.0875V14.0875V14.0874V14.0874V14.0874V14.0874V14.0874V14.0874V14.0874V14.0874V14.0874V14.0873V14.0873V14.0873V14.0873V14.0873V14.0873V14.0873V14.0873V14.0873V14.0872V14.0872V14.0872V14.0872V14.0872V14.0872V14.0872V14.0872V14.0872V14.0871V14.0871V14.0871V14.0871V14.0871V14.0871V14.0871V14.0871V14.0871V14.087V14.087V14.087V14.087V14.087V14.087V14.087V14.087V14.087V14.0869V14.0869V14.0869V14.0869V14.0869V14.0869V14.0869V14.0869V14.0869V14.0868V14.0868V14.0868V14.0868V14.0868V14.0868V14.0868V14.0868V14.0868V14.0868V14.0867V14.0867V14.0867V14.0867V14.0867V14.0867V14.0867V14.0867V14.0867V14.0866V14.0866V14.0866V14.0866V14.0866V14.0866V14.0866V14.0866V14.0866V14.0865V14.0865V14.0865V14.0865V14.0865V14.0865V14.0865V14.0865V14.0865V14.0865V14.0864V14.0864V14.0864V14.0864V14.0864V14.0864V14.0864V14.0864V14.0864V14.0864V14.0863V14.0863V14.0863V14.0863V14.0863V14.0863V14.0863V14.0863V14.0863V14.0862V14.0862V14.0862V14.0862V14.0862V14.0862V14.0862V14.0862V14.0862V14.0862V14.0861V14.0861V14.0861V14.0861V14.0861V14.0861V14.0861V14.0861V14.0861V14.0861V14.086V14.086V14.086V14.086V14.086V14.086V14.086V14.086V14.086V14.086V14.0859V14.0859V14.0859V14.0859V14.0859V14.0859V14.0859V14.0859V14.0859V14.0858V14.0858V14.0858V14.0858V14.0858V14.0858V14.0858V14.0858V14.0858V14.0858V14.0857V14.0857V14.0857V14.0857V14.0857V14.0857V14.0857V14.0857V14.0857V14.0857V14.0856V14.0856V14.0856V14.0856V14.0856V14.0856V14.0856V14.0856V14.0856V14.0856V14.0855V14.0855V14.0855V14.0855V14.0855V14.0855V14.0855V14.0855V14.0855V14.0855V14.0854V14.0854V14.0854V14.0854V14.0854V14.0854V14.0854V14.0854V14.0854V14.0854V14.0853V14.0853V14.0853V14.0853V14.0853V14.0853V14.0853V14.0853V14.0853V14.0853V14.0852V14.0852V14.0852V14.0852V14.0852V14.0852V14.0852V14.0852V14.0852V14.0852V14.0851V14.0851V14.0851V14.0851V14.0851V14.0851V14.0851V14.0851V14.0851V14.0851V14.085V14.085V14.085V14.085V14.085V14.085V14.085V14.085V14.085V14.085V14.0849V14.0849V14.0849V14.0849V14.0849V14.0849V14.0849V14.0849V14.0849V14.0849V14.0848V14.0848V14.0848V14.0848V14.0848V14.0848V14.0848V14.0848V14.0848V14.0848V14.0847V14.0847V14.0847V14.0847V14.0847V14.0847V14.0847V14.0847V14.0847V14.0847V14.0846V14.0846V14.0846V14.0846V14.0846V14.0846V14.0846V14.0846V14.0846V14.0846V14.0845V14.0845V14.0845V14.0845V14.0845V14.0845V14.0845V14.0845V14.0845V14.0845V14.0844V14.0844V14.0844V14.0844V14.0844V14.0844V14.0844V14.0844V14.0844V14.0844V14.0843V14.0843V14.0843V14.0843V14.0843V14.0843V14.0843V14.0843V14.0843V14.0843V14.0842V14.0842V14.0842V14.0842V14.0842V14.0842V14.0842V14.0842V14.0842V14.0842V14.0841V14.0841V14.0841V14.0841V14.0841V14.0841V14.0841V14.0841V14.0841V14.084V14.084V14.084V14.084V14.084V14.084V14.084V14.084V14.084V14.084V14.0839V14.0839V14.0839V14.0839V14.0839V14.0839V14.0839V14.0839V14.0839V14.0839V14.0838V14.0838V14.0838V14.0838V14.0838V14.0838V14.0838V14.0838V14.0838V14.0837V14.0837V14.0837V14.0837V14.0837V14.0837V14.0837V14.0837V14.0837V14.0837V14.0836V14.0836V14.0836V14.0836V14.0836V14.0836V14.0836V14.0836V14.0836V14.0835V14.0835V14.0835V14.0835V14.0835V14.0835V14.0835V14.0835V14.0835V14.0834V14.0834V14.0834V14.0834V14.0834V14.0834V14.0834V14.0834V14.0834V14.0834V14.0833V14.0833V14.0833V14.0833V14.0833V14.0833V14.0833V14.0833V14.0833V14.0832V14.0832V14.0832V14.0832V14.0832V14.0832V14.0832V14.0832V14.0832V14.0831V14.0831V14.0831V14.0831V14.0831V14.0831V14.0831V14.0831V14.0831V14.083V14.083V14.083V14.083V14.083V14.083V14.083V14.083V14.083V14.0829V14.0829V14.0829V14.0829V14.0829V14.0829V14.0829V14.0829V14.0828V14.0828V14.0828V14.0828V14.0828V14.0828V14.0828V14.0828V14.0828V14.0827V14.0827V14.0827V14.0827V14.0827V14.0827V14.0827V14.0827V14.0827V14.0826V14.0826V14.0826V14.0826V14.0826V14.0826V14.0826V14.0826V14.0825V14.0825V14.0825V14.0825V14.0825V14.0825V14.0825V14.0825V14.0825V14.0824V14.0824V14.0824L9.65535 11.8257C9.64502 10.9257 9.92697 10.2825 10.5253 9.87409M10.7911 16.4899L10.5253 9.87409M10.7911 16.4899C11.0873 16.6363 11.4949 16.7787 11.9626 16.7787M10.7911 16.4899L11.9626 16.7787M10.5253 9.87409L10.5534 9.91538L14.4263 14.1104C14.4461 13.6717 14.4474 13.2249 14.4311 12.7816L14.4307 12.7714C14.4163 12.3812 14.4054 12.0854 14.3835 11.8496C14.3615 11.6115 14.3281 11.4311 14.2673 11.2733L14.2672 11.2732C14.0053 10.5943 13.2754 9.98652 12.4128 9.71802C11.6939 9.49403 11.0049 9.5466 10.5253 9.87409ZM13.9576 14.5398L13.9573 14.5398C13.7092 14.529 13.5172 14.3185 13.5279 14.0707L13.5279 14.0707C13.5462 13.6565 13.5476 13.2342 13.532 12.8152L13.5315 12.801C13.5195 12.478 13.5099 12.2199 13.4949 12.0201C13.4795 11.8156 13.4589 11.6786 13.4272 11.597L13.4272 11.5969C13.2666 11.1808 12.7546 10.7664 12.1443 10.5766L12.1443 10.5766C11.6832 10.4329 11.2691 10.4549 11.0319 10.617L11.0318 10.6171C10.9179 10.6948 10.7976 10.8013 10.7061 10.9826C10.6142 11.1647 10.5494 11.4259 10.5538 11.8157L10.5796 14.0697L10.5796 14.0703L10.596 14.7511C10.596 14.7511 10.596 14.7511 10.596 14.7511C10.6057 15.1502 10.8331 15.5074 11.1898 15.6842L11.1898 15.6842C11.6338 15.9044 12.0564 15.9349 12.4583 15.782C12.8621 15.6283 13.2512 15.2872 13.6211 14.7518L13.9576 14.5398ZM13.9576 14.5398C14.2048 14.5489 14.4155 14.3588 14.4263 14.1105L13.9576 14.5398ZM11.9626 16.7787C12.6903 16.7787 13.5521 16.4352 14.3603 15.263C14.5019 15.0586 14.4506 14.7785 14.2463 14.6377M11.9626 16.7787L14.2463 14.6377M14.2463 14.6377C14.042 14.4962 13.7619 14.5475 13.6211 14.7518L14.2463 14.6377ZM12.1592 10.5288C11.692 10.3833 11.2594 10.401 11.0037 10.5758L13.582 12.8133L13.5814 12.7982C13.5573 12.1489 13.5427 11.7564 13.4738 11.5789C13.3059 11.1437 12.7781 10.7213 12.1592 10.5288Z" fill="#777777" stroke="#777777" stroke-width="0.1"/>
<path d="M10.5602 11.267C10.5215 11.0494 10.3147 10.9045 10.0971 10.9426C9.87946 10.9814 9.73459 11.1881 9.77268 11.4058L10.5602 11.267ZM10.5602 11.267C10.6153 11.5792 10.7344 11.8403 10.9132 12.0417C11.4628 12.6612 12.5747 12.7646 13.6806 12.2987C13.8839 12.213 14.1186 12.3089 14.2043 12.5116M10.5602 11.267L14.2043 12.5116M14.2043 12.5116C14.29 12.715 14.1948 12.9496 13.9914 13.0353L14.2043 12.5116ZM9.72343 11.4144L9.72344 11.4144C9.80579 11.8822 9.99166 12.2834 10.2773 12.6053C10.7623 13.1523 11.5106 13.4335 12.3435 13.4335C12.8777 13.4335 13.4481 13.3177 14.0108 13.0814L14.0108 13.0814C14.2397 12.9849 14.3467 12.7209 14.2504 12.4922L14.2503 12.4921C14.1539 12.2641 13.89 12.1562 13.6612 12.2527C12.5643 12.7147 11.4795 12.6048 10.9506 12.0085L10.9506 12.0084C10.7789 11.8152 10.6633 11.563 10.6095 11.2583L10.6095 11.2582C10.5659 11.0135 10.3333 10.8505 10.0885 10.8933L10.0883 10.8934C9.8436 10.937 9.68058 11.1696 9.72343 11.4144Z" fill="#777777" stroke="#777777" stroke-width="0.1"/>
<path d="M15.5775 15.2629L15.5774 15.2629C15.4367 15.0587 15.4871 14.7786 15.6916 14.6377C15.8957 14.497 16.1758 14.5473 16.3167 14.7518C16.6869 15.2875 17.0762 15.6287 17.48 15.7822C17.8819 15.935 18.3043 15.9044 18.748 15.6842L18.748 15.6842C19.1047 15.5075 19.3321 15.1495 19.3419 14.7511L19.3419 14.7511L19.3589 14.0703L19.3589 14.0696L19.3847 11.8157L19.3847 11.8157C19.3894 11.4259 19.3246 11.1647 19.2327 10.9827L15.5775 15.2629ZM15.5775 15.2629C16.3878 16.4358 17.2496 16.7794 17.9772 16.7794C18.4449 16.7794 18.8525 16.637 19.1475 16.4899C19.8034 16.1647 20.2221 15.5066 20.2403 14.7733L20.2573 14.0891L20.2573 14.0891V14.0879V14.0878V14.0878V14.0878V14.0878V14.0878V14.0878V14.0878V14.0878V14.0878V14.0877V14.0877V14.0877V14.0877V14.0877V14.0877V14.0877V14.0877V14.0876V14.0876V14.0876V14.0876V14.0876V14.0876V14.0876V14.0876V14.0875V14.0875V14.0875V14.0875V14.0875V14.0875V14.0875V14.0875V14.0875V14.0874V14.0874V14.0874V14.0874V14.0874V14.0874V14.0874V14.0874V14.0873V14.0873V14.0873V14.0873V14.0873V14.0873V14.0873V14.0873V14.0873V14.0872V14.0872V14.0872V14.0872V14.0872V14.0872V14.0872V14.0872V14.0871V14.0871V14.0871V14.0871V14.0871V14.0871V14.0871V14.0871V14.087V14.087V14.087V14.087V14.087V14.087V14.087V14.087V14.087V14.0869V14.0869V14.0869V14.0869V14.0869V14.0869V14.0869V14.0869V14.0868V14.0868V14.0868V14.0868V14.0868V14.0868V14.0868V14.0868V14.0868V14.0867V14.0867V14.0867V14.0867V14.0867V14.0867V14.0867V14.0867V14.0866V14.0866V14.0866V14.0866V14.0866V14.0866V14.0866V14.0866V14.0866V14.0865V14.0865V14.0865V14.0865V14.0865V14.0865V14.0865V14.0865V14.0864V14.0864V14.0864V14.0864V14.0864V14.0864V14.0864V14.0864V14.0864V14.0863V14.0863V14.0863V14.0863V14.0863V14.0863V14.0863V14.0863V14.0862V14.0862V14.0862V14.0862V14.0862V14.0862V14.0862V14.0862V14.0862V14.0861V14.0861V14.0861V14.0861V14.0861V14.0861V14.0861V14.0861V14.086V14.086V14.086V14.086V14.086V14.086V14.086V14.086V14.086V14.0859V14.0859V14.0859V14.0859V14.0859V14.0859V14.0859V14.0859V14.0859V14.0858V14.0858V14.0858V14.0858V14.0858V14.0858V14.0858V14.0858V14.0857V14.0857V14.0857V14.0857V14.0857V14.0857V14.0857V14.0857V14.0857V14.0856V14.0856V14.0856V14.0856V14.0856V14.0856V14.0856V14.0856V14.0856V14.0855V14.0855V14.0855V14.0855V14.0855V14.0855V14.0855V14.0855V14.0855V14.0854V14.0854V14.0854V14.0854V14.0854V14.0854V14.0854V14.0854V14.0854V14.0853V14.0853V14.0853V14.0853V14.0853V14.0853V14.0853V14.0853V14.0852V14.0852V14.0852V14.0852V14.0852V14.0852V14.0852V14.0852V14.0852V14.0851V14.0851V14.0851V14.0851V14.0851V14.0851V14.0851V14.0851V14.0851V14.085V14.085V14.085V14.085V14.085V14.085V14.085V14.085V14.085V14.0849V14.0849V14.0849V14.0849V14.0849V14.0849V14.0849V14.0849V14.0849V14.0849V14.0848V14.0848V14.0848V14.0848V14.0848V14.0848V14.0848V14.0848V14.0848V14.0847V14.0847V14.0847V14.0847V14.0847V14.0847V14.0847V14.0847V14.0847V14.0846V14.0846V14.0846V14.0846V14.0846V14.0846V14.0846V14.0846V14.0846V14.0845V14.0845V14.0845V14.0845V14.0845V14.0845V14.0845V14.0845V14.0845V14.0845V14.0844V14.0844V14.0844V14.0844V14.0844V14.0844V14.0844V14.0844V14.0844V14.0843V14.0843V14.0843V14.0843V14.0843V14.0843V14.0843V14.0843V14.0843V14.0843V14.0842V14.0842V14.0842V14.0842V14.0842V14.0842V14.0842V14.0842V14.0842V14.0841V14.0841V14.0841V14.0841V14.0841V14.0841V14.0841V14.0841V14.0841V14.0841V14.084V14.084V14.084V14.084V14.084V14.084V14.084V14.084V14.084V14.084V14.0839V14.0839V14.0839V14.0839V14.0839V14.0839V14.0839V14.0839V14.0839V14.0839V14.0838V14.0838V14.0838V14.0838V14.0838V14.0838V14.0838V14.0838V14.0838V14.0838V14.0837V14.0837V14.0837V14.0837V14.0837V14.0837V14.0837V14.0837V14.0837V14.0837V14.0836V14.0836V14.0836V14.0836V14.0836V14.0836V14.0836V14.0836V14.0836V14.0836V14.0835V14.0835V14.0835V14.0835V14.0835V14.0835V14.0835V14.0835V14.0835V14.0835V14.0834V14.0834V14.0834V14.0834V14.0834V14.0834V14.0834V14.0834V14.0834V14.0834V14.0834V14.0833V14.0833V14.0833V14.0833V14.0833V14.0833V14.0833V14.0833V14.0833V14.0833V14.0833V14.0832V14.0832V14.0832V14.0832V14.0832V14.0832V14.0832V14.0832V14.0832V14.0832V14.0831V14.0831V14.0831V14.0831V14.0831V14.0831V14.0831V14.0831V14.0831V14.0831V14.0831V14.083V14.083V14.083V14.083V14.083V14.083V14.083V14.083V14.083V14.083V14.083V14.083V14.0829V14.0829V14.0829V14.0829V14.0829V14.0829V14.0829V14.0829V14.0829V14.0829V14.0829V14.0828V14.0828V14.0828V14.0828V14.0828V14.0828V14.0828V14.0828V14.0828V14.0828V14.0828V14.0827V14.0827V14.0827V14.0827V14.0827V14.0827V14.0827V14.0827V14.0827V14.0827V14.0827V14.0827V14.0826V14.0826V14.0826V14.0826V14.0826V14.0826V14.0826V14.0826V14.0826V14.0826V14.0826V14.0826V14.0825V14.0825V14.0825V14.0825V14.0825V14.0825V14.0825V14.0825V14.0825V14.0825V14.0825V14.0825V14.0825V14.0824V14.0824V14.0824V14.0824L20.2831 11.8257C20.2935 10.9257 20.0115 10.2825 19.4132 9.87409M15.5775 15.2629L15.5122 14.1104C15.4931 13.6718 15.4911 13.225 15.5074 12.7816C15.522 12.3863 15.5331 12.0875 15.5553 11.8496C15.5775 11.6114 15.6111 11.4311 15.6719 11.2733L15.6719 11.2732C15.9338 10.5944 16.6631 9.98653 17.5257 9.71802C18.2445 9.49403 18.9336 9.5466 19.4132 9.87409M16.3565 12.8127C16.3409 13.2336 16.3422 13.6573 16.3606 14.0729M16.3565 12.8127L16.4065 12.8145M16.3565 12.8127L16.4065 12.8145C16.4065 12.8145 16.4065 12.8145 16.4065 12.8145M16.3565 12.8127C16.381 12.155 16.396 11.7578 16.4647 11.5789L16.5113 11.5969C16.4799 11.6786 16.4593 11.8157 16.4439 12.02C16.4286 12.2227 16.4187 12.4853 16.4065 12.8145M16.3606 14.0729L15.5122 14.1104C15.5229 14.3589 15.7358 14.5489 15.9809 14.5398L15.9812 14.5398C16.2293 14.529 16.4213 14.3185 16.4106 14.0707L16.4106 14.0707C16.3923 13.6565 16.3909 13.2342 16.4065 12.8145M16.3606 14.0729C16.3701 14.2933 16.1994 14.4803 15.9791 14.4898L16.3606 14.0729ZM19.4132 9.87409L19.3851 9.91538L19.4132 9.87409C19.4132 9.87409 19.4132 9.87409 19.4132 9.87409ZM17.7935 10.5766C18.2553 10.4329 18.6687 10.4549 18.9066 10.6171L16.5113 11.5969C16.6712 11.1809 17.1839 10.7664 17.7935 10.5766ZM19.1252 16.4451C18.8348 16.59 18.4349 16.7294 17.9772 16.7294C17.2685 16.7294 16.4211 16.3962 15.6186 15.2345L19.1252 16.4451Z" fill="#777777" stroke="#777777" stroke-width="0.1"/>
<path d="M15.9305 13.0824L15.9305 13.0824C15.7017 12.9859 15.5946 12.7226 15.691 12.4932L15.691 12.4932C15.7874 12.2643 16.0507 12.1573 16.2801 12.2536L16.2801 12.2536C17.377 12.7157 18.4618 12.6057 18.9907 12.0095L15.9305 13.0824ZM15.9305 13.0824C16.4919 13.3187 17.0623 13.4345 17.5965 13.4345C18.4294 13.4345 19.1783 13.1526 19.664 12.6063L19.664 12.6063C19.9497 12.2844 20.1355 11.8832 20.2179 11.4154L20.2179 11.4154M15.9305 13.0824L20.2179 11.4154M20.2179 11.4154C20.2607 11.1707 20.0978 10.9372 19.8529 10.8943C19.6082 10.8515 19.3747 11.0144 19.3318 11.2593L20.2179 11.4154ZM19.3318 11.2594C19.2781 11.564 19.1625 11.8155 18.9907 12.0095L19.3318 11.2594Z" fill="#777777" stroke="#777777" stroke-width="0.1"/>
<path d="M9.69885 5.6582H21.1839C21.6327 5.6582 22 5.98534 22 6.38456V17.6159C22 18.0158 21.6327 18.3423 21.1839 18.3423H2.81613C2.36726 18.3423 2 18.0151 2 17.6159V6.38456C2 5.98466 2.36726 5.6582 2.81613 5.6582H4.83198" stroke="#777777" stroke-width="1.2" stroke-miterlimit="10" stroke-linecap="round" stroke-linejoin="round"/>
<path d="M4.96436 9.22461V14.9103" stroke="#FF003C" stroke-width="1.2" stroke-miterlimit="10" stroke-linecap="round" stroke-linejoin="round"/>
</svg>
