<svg width="21" height="22" viewBox="0 0 21 22" fill="none" xmlns="http://www.w3.org/2000/svg">
    <path d="M8.3361 1.03398C8.44862 1.07226 8.55853 1.11779 8.66516 1.17028L9.9479 1.80183C10.296 1.97323 10.704 1.97323 11.0522 1.80183L12.3349 1.17028C13.6975 0.499421 15.3459 1.06018 16.0168 2.42276L16.0903 2.58509L16.1531 2.75183L16.6136 4.10543C16.7385 4.4728 17.027 4.7613 17.3944 4.88627L18.748 5.34673C20.1859 5.83585 20.955 7.39799 20.4658 8.83585C20.4276 8.94837 20.382 9.05829 20.3295 9.16492L19.698 10.4477C19.5266 10.7958 19.5266 11.2038 19.698 11.5519L20.3295 12.8347C21.0004 14.1972 20.4396 15.8457 19.0771 16.5165C18.9704 16.569 18.8605 16.6146 18.748 16.6528L17.3944 17.1133C17.027 17.2383 16.7385 17.5268 16.6136 17.8941L16.1531 19.2477C15.664 20.6856 14.1018 21.4547 12.664 20.9656C12.5514 20.9273 12.4415 20.8818 12.3349 20.8293L11.0522 20.1977C10.704 20.0263 10.296 20.0263 9.9479 20.1977L8.66516 20.8293C7.30257 21.5002 5.65414 20.9394 4.98327 19.5768C4.93078 19.4702 4.88525 19.3603 4.84697 19.2477L4.38651 17.8941C4.26154 17.5268 3.97304 17.2383 3.60567 17.1133L2.25207 16.6528C0.814206 16.1637 0.0450993 14.6016 0.534224 13.1637C0.5725 13.0512 0.618029 12.9413 0.670526 12.8347L1.30207 11.5519C1.47348 11.2038 1.47348 10.7958 1.30207 10.4477L0.670526 9.16492C-0.000335097 7.80233 0.56042 6.15389 1.92301 5.48303C2.02964 5.43053 2.13955 5.385 2.25207 5.34673L3.60567 4.88627C3.97304 4.7613 4.26154 4.4728 4.38651 4.10543L4.84697 2.75183C5.3361 1.31396 6.89823 0.544855 8.3361 1.03398ZM13.9697 7.96946L8.55043 13.3887L6.5762 11.0197C6.31103 10.7014 5.8381 10.6584 5.51989 10.9236C5.20169 11.1888 5.15869 11.6617 5.42387 11.9799L7.92387 14.9799C8.2062 15.3187 8.71851 15.342 9.03036 15.0301L15.0304 9.03012C15.3233 8.73722 15.3233 8.26235 15.0304 7.96946C14.7375 7.67657 14.2626 7.67657 13.9697 7.96946Z"
          fill="#17A539"></path>
</svg>
