<svg xmlns="http://www.w3.org/2000/svg" width="174" height="32" fill="none"><g clip-path="url(#a)"><path fill="#FF003C" d="M7.9629 2.4372c0-1.2858 1.0435-2.32 2.32-2.32 1.2858 0 2.3201 1.0435 2.3201 2.32v12.215a2.3144 2.3144 0 0 1-2.3201 2.3201c-1.2858 0-2.32-1.0436-2.32-2.3201V2.4372ZM19.5553 13.6424c-1.379-.8013-2.3014-2.3014-2.3014-4.0065 0-1.7516.969-3.2704 2.3946-4.0623l5.1525-2.9723c.3354-.1863.7174-.2888 1.1274-.2888 1.2858 0 2.32 1.0435 2.32 2.32a2.3181 2.3181 0 0 1-1.1646 2.0126l-4.0904 2.3572c-.2236.1212-.3727.3634-.3727.6336 0 .2702.1398.5032.3541.6243l4.0903 2.3666c.6988.4006 1.174 1.1553 1.174 2.0219 0 1.2858-1.0435 2.32-2.32 2.32a2.3353 2.3353 0 0 1-1.1647-.3075l-5.1991-3.0188ZM33.9793 21.5671c-3.6338 5.637-9.7646 9.3453-16.7247 9.3453-6.9228 0-13.035-3.671-16.6688-9.2614-.587-.9038-.3355-2.1244.5776-2.7114.8759-.5683 2.0405-.3447 2.6555.4938 3.0282 4.1463 7.9198 6.839 13.445 6.839s10.4262-2.7021 13.4543-6.8483c.587-.7919 1.6958-1.0435 2.5716-.5311.9131.5404 1.2299 1.7424.6895 2.6741Z"/><path fill="#323232" d="M64.9157 11.125c-3.5872 0-6.5036 2.9536-6.5036 6.5874 0 3.643 2.9164 6.606 6.5036 6.606 3.6058 0 6.5315-2.963 6.5315-6.606 0-3.6338-2.9257-6.5874-6.5315-6.5874Zm3.0188 6.578c0 1.8915-1.2858 3.3263-2.9909 3.3263-1.733 0-3.0468-1.4255-3.0468-3.3263 0-1.8821 1.3045-3.2983 3.0468-3.2983 1.7051 0 2.9909 1.4162 2.9909 3.2983ZM80.8525 11.125c-1.2299 0-2.3108.382-3.1027 1.1088-.0559.0465-.1212.0745-.1864.0559-.0373-.0093-.1025-.028-.1491-.1025-.2981-.5125-.8479-.8106-1.528-.8106-.997 0-1.7144.736-1.7144 1.7423v9.1962c0 .5125.1863.969.5124 1.2858.3168.2982.7454.4566 1.2299.4566h.1118c.9131-.0466 1.6306-.8106 1.6306-1.7424v-5.4227c0-1.5373.8665-2.4877 2.2641-2.4877s2.2641.9504 2.2641 2.4877v5.4227c0 1.0063.7082 1.7237 1.7238 1.7424a1.7369 1.7369 0 0 0 1.2485-.4939c.3447-.3354.5404-.8012.5404-1.2857v-5.842c-.0093-3.2238-1.9101-5.3109-4.845-5.3109ZM96.175 20.6517c-.3075 0-.615.0932-.9131.1864-.2982.0931-.615.1956-.9411.1956-.4658 0-.8945-.1304-.8945-1.0435v-5.2736a.2108.2108 0 0 1 .2143-.2143h1.8169c.9038 0 1.5374-.6429 1.5374-1.5653 0-.9225-.6336-1.5654-1.5374-1.5654h-1.8634a.2108.2108 0 0 1-.2143-.2143v-1.0994c0-.4845-.1957-.9597-.5405-1.2951-.3354-.3354-.7733-.5218-1.2392-.5125-1.0062.0094-1.705.7361-1.705 1.7703v1.1367c0 .1212-.0932.2143-.2144.2143h-.7267c-.9224 0-1.5653.6336-1.5653 1.5374 0 .9411.6429 1.5933 1.5653 1.5933h.6988a.2108.2108 0 0 1 .2143.2143v4.9195c0 2.9723 1.5653 4.6866 4.3046 4.6866 2.0406 0 3.4661-.941 3.4661-2.3013 0-.6616-.4565-1.3697-1.4628-1.3697ZM110.217 11.3859c-.755-.0373-1.36.2888-1.677.8758-.037.0652-.103.0932-.131.0932a.2544.2544 0 0 1-.195-.0559c-.895-.7827-2.022-1.174-3.373-1.174-3.438 0-6.0285 2.8325-6.0285 6.5874 0 3.7642 2.5905 6.606 6.0285 6.606 1.314 0 2.432-.41 3.335-1.202.056-.0466.14-.0745.215-.0559.037.0093.102.028.14.1025.288.559.866.9038 1.556.9038.465.0093.903-.177 1.239-.5032.345-.3354.531-.7919.531-1.2671v-9.1683c0-.9317-.718-1.6957-1.64-1.7423Zm-1.873 6.3265c0 1.8914-1.286 3.3262-2.991 3.3262-1.733 0-3.046-1.4255-3.046-3.3262 0-1.8821 1.304-3.2984 3.046-3.2984 1.705 0 2.991 1.4163 2.991 3.2984ZM137.48 20.6517c-.308 0-.615.0932-.913.1864-.299.0931-.615.1956-.941.1956-.466 0-.895-.1304-.895-1.0435v-5.2736c0-.1212.093-.2143.214-.2143h1.817c.904 0 1.538-.6429 1.538-1.5653 0-.9225-.634-1.5654-1.538-1.5654h-1.863c-.121 0-.215-.0931-.215-.2143v-1.0994c0-.4845-.195-.9597-.54-1.2951-.335-.3354-.773-.5218-1.239-.5125-1.006.0094-1.705.7361-1.705 1.7703v1.1461c0 .1211-.093.2143-.215.2143h-.726c-.923 0-1.566.6335-1.566 1.5373 0 .9411.643 1.5933 1.566 1.5933h.698c.122 0 .215.0932.215.2143v4.9195c0 2.9723 1.565 4.6867 4.304 4.6867 2.041 0 3.467-.9411 3.467-2.3014 0-.6709-.457-1.379-1.463-1.379ZM117.089 6.7031c-.997 0-1.714.736-1.714 1.7424V22.319c0 1.0249.717 1.7423 1.742 1.7423s1.743-.7174 1.743-1.7423V8.4455c0-1.025-.727-1.7424-1.771-1.7424ZM126.435 21.2286l-2.497-3.2424c-.121-.1584-.121-.382 0-.5497l2.497-3.2425c.624-.8106.494-1.8262-.335-2.4597-.792-.6057-1.808-.4659-2.423.3354l-2.152 2.7952-.68.8758c-.895 1.1647-.895 2.7859 0 3.9506l.68.8758 2.152 2.7952c.624.8106 1.631.941 2.441.3168.82-.6336.941-1.6399.317-2.4505ZM46.9644 6.7031c-.997 0-1.7144.736-1.7144 1.7424V22.319c0 1.0249.7174 1.7423 1.7424 1.7423 1.0249 0 1.7423-.7174 1.7423-1.7423V8.4455c0-1.025-.7267-1.7424-1.7703-1.7424ZM56.2984 21.2286l-2.4971-3.2424c-.1211-.1584-.1211-.382 0-.5497l2.4971-3.2425c.6243-.8106.4938-1.8262-.3354-2.4597-.792-.6057-1.8076-.4659-2.4225.3354l-2.1524 2.7952-.6801.8758c-.8945 1.1647-.8945 2.7859 0 3.9506l.6801.8758 2.1524 2.7952c.6242.8106 1.6305.941 2.4411.3168.8199-.6336.9504-1.6399.3168-2.4505Z"/><path fill="#323232" fill-rule="evenodd" d="M169.864 6.936h-17.066c-.884 0-1.6.7163-1.6 1.6v14.9333c0 .8836.716 1.6 1.6 1.6h17.066c.884 0 1.6-.7164 1.6-1.6V8.5359c0-.8836-.716-1.6-1.6-1.6Zm-17.066-1.6c-1.768 0-3.2 1.4326-3.2 3.2v14.9333c0 1.7673 1.432 3.2 3.2 3.2h17.066c1.768 0 3.2-1.4327 3.2-3.2V8.5359c0-1.7673-1.432-3.2-3.2-3.2h-17.066Zm1.493 5.9564c0-.5615.46-.976 1.063-.976.604 0 1.049.4145 1.049.976v9.4258c0 .5615-.445.976-1.049.976-.603 0-1.063-.4145-1.063-.976v-9.4258Zm5.184-.976c-.546 0-.961.434-.961 1.0035v9.3708c0 .5695.415 1.0035.961 1.0035h3.103c3.428 0 5.792-2.4953 5.792-5.6957v-.0271c0-3.2004-2.364-5.655-5.792-5.655h-3.103Zm.948 9.5606v-7.7298h2.142c2.286 0 3.779 1.6409 3.779 3.8649v.0271c0 2.224-1.493 3.8378-3.779 3.8378h-2.142Z" clip-rule="evenodd"/></g><defs><clipPath id="a"><path fill="#fff" d="M0 0h174v32H0z"/></clipPath></defs></svg>