<svg xmlns="http://www.w3.org/2000/svg" width="34" height="34" fill="none"><path fill="#323232" d="M21.82 30.113a1.157 1.157 0 0 1-.825-1.967c2.653-2.704 4.54-5.863 5.61-9.389a1.157 1.157 0 0 1 2.215.671c-1.179 3.886-3.256 7.364-6.174 10.338a1.154 1.154 0 0 1-.826.347Z"/><path fill="#323232" d="M15.025 34c-.395 0-.788-.057-1.17-.173-2.348-.71-4.519-2.067-6.454-4.034-.01-.008-.018-.017-.027-.026C4.22 26.553 2.052 22.754.93 18.475c-.967-3.688-.979-7.065-.903-9.284 0-.02.002-.037.003-.056.06-1.128.762-2.065 1.8-2.395C6.513 5.25 9.857 3.47 13.375.588a2.61 2.61 0 0 1 3.3 0c3.517 2.881 6.861 4.663 11.543 6.152A2.589 2.589 0 0 1 30.02 9.26a1.158 1.158 0 0 1-2.314-.065.264.264 0 0 0-.19-.252c-4.981-1.584-8.547-3.486-12.309-6.566a.295.295 0 0 0-.367 0C11.08 5.458 7.514 7.36 2.53 8.944c-.135.043-.188.202-.192.324l-.002.044c-.167 4.997.355 12.363 6.66 18.809.01.008.018.017.026.025 1.666 1.7 3.515 2.867 5.497 3.465.328.1.676.1 1.006 0 1.964-.593 3.798-1.746 5.455-3.422.21-.239.52-.39.864-.39.465 0 .887.28 1.068.71.181.43.087.925-.24 1.257-1.941 1.982-4.12 3.347-6.479 4.06a4.07 4.07 0 0 1-1.17.174Z"/><path fill="#FF003C" d="M15.24 25.027c-.35 0-.7-.16-.927-.463l-5.288-7.051a1.156 1.156 0 1 1 1.85-1.389l4.6 6.132 16.363-12.12a1.158 1.158 0 0 1 1.377 1.86L15.928 24.798a1.147 1.147 0 0 1-.688.228Z"/></svg>