<svg xmlns="http://www.w3.org/2000/svg" width="40" height="26" fill="none"><path fill="#FF003C" stroke="#FF003C" d="M7.252 7.087v.5h2.595a.323.323 0 1 1 0 .646H6.929a.323.323 0 0 1-.324-.323V4.02a.323.323 0 1 1 .647 0v3.067Z"/><path fill="#323232" d="M8.93 13.975a.899.899 0 0 1-.12-1.788c2.588-.349 4.54-2.583 4.547-5.197a5.264 5.264 0 0 0-4.58-5.202.898.898 0 0 1 .227-1.78c3.494.447 6.129 3.434 6.148 6.955v.052c-.02 3.499-2.636 6.483-6.102 6.95a.657.657 0 0 1-.12.01ZM6.264 14.005c-.037 0-.076-.003-.115-.007C2.643 13.549 0 10.54 0 7.004 0 3.489 2.623.484 6.102.014a.898.898 0 1 1 .241 1.78 5.272 5.272 0 0 0-4.547 5.21c0 2.638 1.969 4.88 4.58 5.215a.898.898 0 0 1-.112 1.786ZM10.886 25.741a4.402 4.402 0 0 1-4.398-4.397 4.401 4.401 0 0 1 4.398-4.398 4.401 4.401 0 0 1 4.397 4.398 4.402 4.402 0 0 1-4.397 4.397Zm0-6.516c-1.17 0-2.12.951-2.12 2.12s.95 2.12 2.12 2.12c1.168 0 2.12-.953 2.12-2.121a2.122 2.122 0 0 0-2.12-2.12ZM30.128 25.741a4.402 4.402 0 0 1-4.398-4.397 4.401 4.401 0 0 1 4.398-4.398 4.401 4.401 0 0 1 4.397 4.398 4.402 4.402 0 0 1-4.397 4.397Zm0-6.516c-1.169 0-2.12.951-2.12 2.12s.951 2.12 2.12 2.12 2.12-.951 2.12-2.12-.951-2.12-2.12-2.12ZM22.204 22.482H17.6a1.139 1.139 0 0 1 0-2.277h4.605c.04 0 .072-.031.072-.07V4.441a.071.071 0 0 0-.072-.071h-5.968a1.139 1.139 0 0 1 0-2.277h5.968a2.35 2.35 0 0 1 2.349 2.348v15.692a2.35 2.35 0 0 1-2.349 2.348ZM4.02 22.482H2.347A2.35 2.35 0 0 1 0 20.134V15.6a1.139 1.139 0 0 1 2.277 0v4.531c0 .04.032.072.071.072H4.02a1.139 1.139 0 0 1 0 2.278Z"/><path fill="#323232" d="M37.65 21.907h-1.018a1.139 1.139 0 0 1 0-2.277h1.019c.04 0 .071-.032.071-.071v-5.414a.07.07 0 0 0-.021-.05l-6.119-6.12a.072.072 0 0 0-.05-.02h-4.82a1.139 1.139 0 0 1 0-2.277h4.82c.627 0 1.217.244 1.66.687l6.12 6.119c.443.443.687 1.034.687 1.66v5.414a2.352 2.352 0 0 1-2.348 2.35Z"/><path fill="#323232" d="M34.273 14.931h-6.951a1.139 1.139 0 0 1 0-2.277h6.95a1.139 1.139 0 0 1 0 2.277Z"/></svg>