<svg xmlns="http://www.w3.org/2000/svg" width="29" height="35" fill="none"><path fill="#323232" d="M11.04 35c-.343 0-.67-.168-.868-.457l-3.21-4.684-5.144 2.297a1.053 1.053 0 0 1-1.445-1.238l1.78-6.512a1.052 1.052 0 1 1 2.032.555l-1.194 4.365 3.913-1.747a1.052 1.052 0 0 1 1.298.366l2.444 3.569 1.31-4.545a1.051 1.051 0 1 1 2.022.584l-1.928 6.69a1.054 1.054 0 0 1-.844.747c-.054.005-.11.01-.166.01ZM17.99 34.812a1.052 1.052 0 0 1-1.012-.762l-1.929-6.69a1.052 1.052 0 1 1 2.023-.583l1.31 4.544 2.445-3.568c.287-.42.834-.573 1.298-.367l3.913 1.748-1.194-4.366a1.053 1.053 0 1 1 2.03-.555l1.782 6.513a1.052 1.052 0 0 1-1.445 1.24l-5.144-2.298-3.21 4.684c-.197.291-.523.46-.867.46ZM14 23.978c-6.61 0-11.988-5.378-11.988-11.989C2.012 5.38 7.389 0 14 0 20.61 0 25.99 5.378 25.99 11.99c0 6.61-5.38 11.988-11.99 11.988Zm0-21.872c-5.449 0-9.883 4.434-9.883 9.883 0 5.45 4.434 9.884 9.884 9.884s9.883-4.434 9.883-9.884-4.434-9.883-9.883-9.883Z"/><path fill="#FF003C" stroke="#FF003C" d="M12.072 9.761h.001a.552.552 0 0 0 .387-.284l.904-1.697a.723.723 0 0 1 .639-.385.728.728 0 0 1 .613.341l.013.02.01.023.002.002.936 1.723a.55.55 0 0 0 .388.28l1.9.337a.714.714 0 0 1 .466.295l.002.002a.718.718 0 0 1 .12.534v.005a.715.715 0 0 1-.21.396l-.006.007-.006.005-.008.009-1.316 1.386a.55.55 0 0 0-.146.455l.266 1.909v.002a.71.71 0 0 1-.142.538l-4.813-5.903Zm0 0-1.897.354a.66.66 0 0 0-.013.002l-.01.002m1.92-.358-1.92.359m0 0h-.003a.712.712 0 0 0-.384.191l-.002.002a.714.714 0 0 0-.22.504.71.71 0 0 0 .202.517l1.338 1.387c.116.121.172.29.15.457v.001l-.247 1.881v.003a.697.697 0 0 0 .06.485.727.727 0 0 0 .964.327l1.73-.842a.551.551 0 0 1 .48-.003l1.777.848H16a.71.71 0 0 0 .419.061.719.719 0 0 0 .467-.275l-6.734-5.544Zm-.104 5.906v-.001a1.803 1.803 0 0 1-.159-1.114l.002-.01.002-.011.178-1.354.031-.239-.167-.173L8.95 12.1a1.814 1.814 0 0 1-.511-1.303v-.001a1.81 1.81 0 0 1 .561-1.282c.266-.256.599-.424.966-.484l.01-.002 1.396-.26.237-.044.113-.213.667-1.253c.23-.431.612-.745 1.08-.889.47-.142.962-.093 1.39.135a1.842 1.842 0 0 1 .768.775l.679 1.25.115.211.237.042 1.4.248c.479.084.897.349 1.179.749.281.4.389.884.305 1.367l-.005.027c-.07.37-.247.7-.514.963l-.006.006-.007.006-.95 1.003-.167.175.034.239.197 1.408c.068.482-.057.962-.352 1.353a1.83 1.83 0 0 1-2.246.55l-1.322-.63-.217-.104-.217.106-1.276.621-.001.001c-.25.123-.517.184-.798.184a1.843 1.843 0 0 1-1.647-1.028Zm4.566-8.29Z"/></svg>