<svg xmlns="http://www.w3.org/2000/svg" width="40" height="27" fill="none"><path fill="#323232" d="M37.364 26.168H2.636C1.183 26.168 0 25.06 0 23.7V2.466C0 1.106 1.183 0 2.636 0h5.342a1.094 1.094 0 0 1 0 2.186H2.636c-.27 0-.45.168-.45.28v21.235c0 .112.18.28.45.28h34.728c.27 0 .45-.168.45-.28V2.466c0-.112-.18-.28-.45-.28H15.649a1.094 1.094 0 0 1 0-2.186h21.715C38.817 0 40 1.107 40 2.466v21.235c0 1.36-1.183 2.467-2.636 2.467Z"/><path fill="#323232" d="M14.711 9.063h-2.059v2.06h2.059v-2.06ZM14.713 8.519V7.024a.565.565 0 0 0-.564-.564H10.05v2.059h4.662ZM9.504 6.46H8.01a.565.565 0 0 0-.565.564V8.52h2.059V6.46ZM7.445 13.162c0 .311.254.565.565.565h4.098v-2.059H7.445v1.494ZM12.652 13.725h1.495a.565.565 0 0 0 .564-.565v-1.494h-2.059v2.059ZM12.11 9.063h-2.06v2.06h2.06v-2.06ZM9.504 9.063H7.445v2.06h2.059v-2.06Z"/><path fill="#FF003C" d="M32.089 19.384H7.914a.836.836 0 1 1 0-1.671h24.175a.836.836 0 1 1 0 1.671Z"/></svg>